<?xml version="1.0" encoding="utf-8"?>
<svg version="1.1" xmlns:xlink="http://www.w3.org/1999/xlink" width="21px" height="22px" xmlns="http://www.w3.org/2000/svg">
  <g transform="matrix(1 0 0 1 -20 -149 )">
    <path d="M 2.8079927884615388 9.1953125  C 3.6030649038461537 9.997395833333334  4.59375 10.53689236111111  5.7800480769230775 10.813802083333334  C 5.1574519230769225 9.266927083333334  4.846153846153847 7.4956597222222205  4.846153846153847 5.5  L 1.6153846153846154 5.5  L 1.6153846153846154 6.875  C 1.6153846153846154 7.619791666666666  2.0129206730769234 8.393229166666666  2.8079927884615388 9.1953125  Z M 18.192007211538463 9.1953125  C 18.987079326923077 8.393229166666666  19.384615384615387 7.619791666666666  19.384615384615387 6.875  L 19.384615384615387 5.5  L 16.153846153846153 5.5  C 16.153846153846153 7.4956597222222205  15.842548076923078 9.266927083333334  15.219951923076923 10.813802083333334  C 16.40625 10.53689236111111  17.396935096153847 9.997395833333334  18.192007211538463 9.1953125  Z M 20.646634615384613 4.067708333333334  C 20.88221153846154 4.335069444444443  21 4.6597222222222205  21 5.041666666666666  L 21 6.875  C 21 7.552951388888888  20.825420673076923 8.235677083333334  20.47626201923077 8.923177083333334  C 20.127103365384617 9.610677083333334  19.65594951923077 10.231336805555554  19.06280048076923 10.78515625  C 18.469651442307693 11.338975694444446  17.74188701923077 11.804470486111109  16.879507211538463 12.181640625  C 16.017127403846157 12.558810763888886  15.110576923076925 12.771267361111109  14.159855769230768 12.819010416666668  C 13.806490384615385 13.334635416666668  13.406850961538463 13.788194444444441  12.9609375 14.1796875  C 12.641225961538463 14.504340277777777  12.420372596153847 14.850477430555559  12.298377403846155 15.218098958333332  C 12.176382211538463 15.585720486111109  12.115384615384617 16.013020833333332  12.115384615384615 16.5  C 12.115384615384617 17.015625  12.243689903846155 17.450086805555554  12.500300480769232 17.803385416666664  C 12.756911057692308 18.15668402777778  13.167067307692308 18.333333333333336  13.730769230769232 18.333333333333336  C 14.361778846153845 18.333333333333336  14.923377403846155 18.55056423611111  15.415564903846155 18.985026041666664  C 15.907752403846155 19.41948784722222  16.153846153846153 19.966145833333336  16.153846153846153 20.625  L 16.153846153846153 21.541666666666664  C 16.153846153846153 21.67534722222222  16.115985576923077 21.78515625  16.040264423076923 21.87109375  C 15.964543269230768 21.95703125  15.867788461538463 22  15.75 22  L 5.25 22  C 5.132211538461539 22  5.035456730769232 21.95703125  4.959735576923077 21.87109375  C 4.884014423076923 21.78515625  4.846153846153847 21.67534722222222  4.846153846153847 21.541666666666664  L 4.846153846153847 20.625  C 4.846153846153847 19.966145833333336  5.092247596153847 19.41948784722222  5.584435096153847 18.985026041666664  C 6.076622596153847 18.55056423611111  6.638221153846153 18.333333333333336  7.269230769230769 18.333333333333336  C 7.832932692307693 18.333333333333336  8.243088942307693 18.15668402777778  8.499699519230768 17.803385416666664  C 8.756310096153847 17.450086805555554  8.884615384615385 17.015625  8.884615384615385 16.5  C 8.884615384615385 16.013020833333332  8.823617788461538 15.585720486111109  8.701622596153847 15.218098958333332  C 8.579627403846153 14.850477430555559  8.358774038461538 14.504340277777777  8.0390625 14.1796875  C 7.593149038461539 13.788194444444441  7.193509615384616 13.334635416666668  6.840144230769231 12.819010416666668  C 5.889423076923078 12.771267361111109  4.982872596153847 12.558810763888886  4.120492788461538 12.181640625  C 3.2581129807692313 11.804470486111109  2.530348557692308 11.338975694444446  1.9371995192307694 10.78515625  C 1.3440504807692306 10.231336805555554  0.8728966346153847 9.610677083333334  0.5237379807692308 8.923177083333334  C 0.17457932692307693 8.235677083333334  0 7.552951388888888  0 6.875  L 0 5.041666666666666  C 0 4.6597222222222205  0.11778846153846152 4.335069444444443  0.3533653846153846 4.067708333333334  C 0.5889423076923078 3.8003472222222205  0.8750000000000001 3.666666666666666  1.2115384615384617 3.666666666666666  L 4.846153846153847 3.666666666666666  L 4.846153846153847 2.291666666666666  C 4.846153846153847 1.6614583333333341  5.043870192307692 1.1219618055555545  5.439302884615384 0.6731770833333341  C 5.8347355769230775 0.22439236111110894  6.310096153846153 0  6.865384615384616 0  L 14.134615384615385 0  C 14.689903846153845 0  15.165264423076925 0.22439236111110894  15.560697115384615 0.6731770833333341  C 15.956129807692308 1.1219618055555545  16.153846153846153 1.6614583333333341  16.153846153846153 2.291666666666666  L 16.153846153846153 3.666666666666666  L 19.788461538461537 3.666666666666666  C 20.125000000000004 3.666666666666666  20.411057692307693 3.8003472222222205  20.646634615384613 4.067708333333334  Z " fill-rule="nonzero" fill="#f2f2f2" stroke="none" transform="matrix(1 0 0 1 20 149 )" />
  </g>
</svg>